<svg xmlns="http://www.w3.org/2000/svg" xmlns:xlink="http://www.w3.org/1999/xlink" xml:space="preserve" version="1.1" style="shape-rendering:geometricPrecision;text-rendering:geometricPrecision;image-rendering:optimizeQuality;" viewBox="0 0 422 422" x="0px" y="0px" fill-rule="evenodd" clip-rule="evenodd"><defs><style type="text/css">
   
    .fil0 {fill:black;fill-rule:nonzero}
   
  </style></defs><g><path class="fil0" d="M211 117c36,0 66,30 66,66 0,36 -30,65 -66,65 -36,0 -65,-29 -65,-65 0,-36 29,-66 65,-66zm0 19c-25,0 -46,21 -46,47 0,25 21,46 46,46 26,0 47,-21 47,-46 0,-26 -21,-47 -47,-47z"></path><path class="fil0" d="M211 0c59,0 111,24 150,62 38,38 61,91 61,149 0,59 -23,111 -61,150 -39,38 -91,61 -150,61 -58,0 -111,-23 -149,-61 -38,-39 -62,-91 -62,-150 0,-58 24,-111 62,-149 38,-38 91,-62 149,-62zm-51 257l103 0c46,0 86,31 99,73 26,-32 41,-74 41,-119 0,-53 -21,-101 -56,-136 -35,-34 -83,-56 -136,-56 -53,0 -101,22 -136,56 -34,35 -56,83 -56,136 0,45 16,87 42,119 12,-42 52,-73 99,-73zm186 91c-6,-41 -41,-72 -83,-72l-103 0c-43,0 -78,31 -84,72 35,34 83,55 135,55 53,0 101,-21 135,-55z"></path></g></svg>