<svg xmlns="http://www.w3.org/2000/svg" xmlns:xlink="http://www.w3.org/1999/xlink" version="1.1" x="0px" y="0px" viewBox="0 0 100 100" style="enable-background:new 0 0 100 100;" xml:space="preserve"><style type="text/css">
	.st0{fill-rule:evenodd;clip-rule:evenodd;}
</style><path d="M99.7898331,35.2999496c-0.1972122-0.3040237-0.5116272-0.5125389-0.8683319-0.5757866L24.3113976,21.4995022  l-0.2579556-2.7637901c-0.4073715-4.3631535-3.1694736-8.1291943-7.2083721-9.8281231L1.8135327,2.5839508  c-0.6647348-0.2796006-1.431358,0.0324438-1.7109586,0.6975431C-0.1772087,3.9465933,0.135018,4.7126698,0.8001174,4.9924526  l15.0317192,6.3236389c3.1488781,1.3247299,5.3022041,4.2607183,5.6198978,7.6624031l4.4338741,47.5078583l-1.9962082,15.9698563  c-0.0464783,0.3718262,0.0690804,0.7456589,0.3169651,1.0267181c0.2480679,0.2808762,0.6047688,0.4418182,0.9795132,0.4418182  h2.937994c-1.3335934,1.4448929-2.1502266,3.3737106-2.1502266,5.4903107c0,4.4683228,3.6351719,8.1034927,8.1033115,8.1034927  c4.4683228,0,8.1034966-3.63517,8.1034966-8.1034927c0-2.1166-0.8166122-4.0454178-2.1502266-5.4903107h36.540184  c-1.3336182,1.4448929-2.1502304,3.3737106-2.1502304,5.4903107c0,4.4683228,3.63517,8.1034927,8.1035004,8.1034927  c4.4683228,0,8.1034927-3.63517,8.1034927-8.1034927c0-2.1166-0.8166122-4.0454178-2.1502304-5.4903107h0.4347153  c0.7216034,0,1.3065033-0.5848999,1.3065033-1.3065033s-0.5848999-1.3065033-1.3065033-1.3065033H26.6659031l1.6872864-13.498291  h62.7161713c0.5994797,0,1.1220474-0.4080963,1.2674942-0.9895325l7.6241302-30.4963303  C100.0488358,35.9759865,99.9868622,35.6037903,99.7898331,35.2999496z M39.5674438,89.4150543  c0,3.0274811-2.4629974,5.4904861-5.4904861,5.4904861c-3.0273037,0-5.4903049-2.4630051-5.4903049-5.4904861  c0-3.0273056,2.4630013-5.4903107,5.4903049-5.4903107C37.1044464,83.9247437,39.5674438,86.3877487,39.5674438,89.4150543z   M88.0141678,89.4150543c0,3.0274811-2.4630051,5.4904861-5.4904861,5.4904861  c-3.0274887,0-5.4904938-2.4630051-5.4904938-5.4904861c0-3.0273056,2.4630051-5.4903107,5.4904938-5.4903107  C85.5511627,83.9247437,88.0141678,86.3877487,88.0141678,89.4150543z M26.5981445,46.0011406L39.628849,47.170578  l1.0060997,18.0298615H28.390007L26.5981445,46.0011406z M42.2591476,47.4066162l11.3973236,1.0228958v16.7709274H43.2520561  L42.2591476,47.4066162z M53.6564713,45.8061142L42.112011,44.7700043l-0.9841156-17.6360226l12.5285759,2.2207203V45.8061142z   M56.2694778,29.8178463l12.1698456,2.1571083l-0.9909286,15.068903l-11.1789169-1.0032539V29.8178463z M56.2694778,48.6640015  l11.0074234,0.987896l-1.0224609,15.548542h-9.9849625V48.6640015z M69.8803406,49.8855209l11.2452698,1.0092239  l-1.3174438,14.3056946H68.8732376L69.8803406,49.8855209z M70.0518341,47.2774811l0.97612-14.8437119l11.6082535,2.0576363  l-1.2709885,13.801403L70.0518341,47.2774811z M38.4846535,26.6655064l0.9970818,17.8684597l-13.1305199-1.1784134  l-1.7879906-19.1576958L38.4846535,26.6655064z M90.049202,65.2004395h-7.6169052l1.295929-14.0721169l9.6231384,0.863636  L90.049202,65.2004395z M93.992836,49.4261131l-10.0249939-0.8997269l1.2503662-13.5773506l11.8680267,2.103611  L93.992836,49.4261131z"></path></svg>